<?xml version="1.0" encoding="UTF-8"?>
<svg width="24px" height="692px" viewBox="0 0 24 692" version="1.1" xmlns="http://www.w3.org/2000/svg" xmlns:xlink="http://www.w3.org/1999/xlink">
    <!-- Generator: Sketch 64 (93537) - https://sketch.com -->
    <title>sprites-icon-24.dc02f2e9</title>
    <desc>Created with Sketch.</desc>
    <g id="Product-page" stroke="none" stroke-width="1" fill="none" fill-rule="evenodd">
        <g id="sprites-icon-24.dc02f2e9">
            <g id="facebook" transform="translate(6.000000, 0.000000)" fill="#222222" fill-rule="nonzero">
                <g id="product_dteail-icon-facebook">
                    <path d="M11.015625,0.015625 L11.015625,4 L9,4 C8.6562483,4.03125016 8.4062508,4.19531102 8.25,4.4921875 C8.0937492,4.78906398 8.015625,5.12499812 8.015625,5.5 L8.015625,7.984375 L11.015625,7.984375 L11.015625,12.015625 L8.015625,12.015625 L8.015625,19.984375 L3.984375,19.984375 L3.984375,12.015625 L0.984375,12.015625 L0.984375,7.984375 L3.984375,7.984375 L3.984375,4 C4.0156252,2.87499437 4.4062463,1.93750375 5.15625,1.1875 C5.9062537,0.43749625 6.8593692,0.04687516 8.015625,0.015625 L11.015625,0.015625 Z" id="ïˆŒ"></path>
                </g>
            </g>
            <g id="twitter" transform="translate(1.000000, 35.000000)" fill="#222222" fill-rule="nonzero">
                <g id="product_dteail-icon-twitter">
                    <g id="ï•„">
                        <path d="M21.453125,3 C20.859372,3.87500437 20.1406292,4.62499688 19.296875,5.25 L19.34375,5.8125 C19.3124998,8.78126484 18.2578229,11.5156125 16.1796875,14.015625 C14.1015521,16.5156375 11.0781448,17.8437492 7.109375,18 C5.89061891,18 4.72656805,17.8281267 3.6171875,17.484375 C2.50780695,17.1406233 1.48437969,16.671878 0.546875,16.078125 C0.890626719,16.1093752 1.23437328,16.125 1.578125,16.125 C2.57813,16.125 3.53124547,15.9687516 4.4375,15.65625 C5.34375453,15.3437484 6.15624641,14.890628 6.875,14.296875 C5.93749531,14.2656248 5.10937859,13.9765652 4.390625,13.4296875 C3.67187141,12.8828098 3.17187641,12.1718794 2.890625,11.296875 C3.14062625,11.3593753 3.40624859,11.390625 3.6875,11.390625 C4.09375203,11.390625 4.46874828,11.3437505 4.8125,11.25 C3.812495,11.0312489 2.9921907,10.5390663 2.3515625,9.7734375 C1.7109343,9.00780867 1.390625,8.09375531 1.390625,7.03125 L1.390625,6.984375 C1.95312781,7.29687656 2.59374641,7.46874984 3.3125,7.5 C2.74999719,7.12499812 2.29687672,6.62500312 1.953125,6 C1.60937328,5.37499688 1.4375,4.67969133 1.4375,3.9140625 C1.4375,3.14843367 1.62499812,2.43750328 2,1.78125 C3.06250531,3.09375656 4.35155492,4.14062109 5.8671875,4.921875 C7.38282008,5.70312891 9.046875,6.15624938 10.859375,6.28125 C10.7656245,5.96874844 10.71875,5.64062672 10.71875,5.296875 C10.7500002,4.07811891 11.1718709,3.06250406 11.984375,2.25 C12.7968791,1.43749594 13.7968691,1.01562516 14.984375,0.984375 C16.2968816,1.01562516 17.3593709,1.46874563 18.171875,2.34375 C19.1406298,2.15624906 20.046875,1.8125025 20.890625,1.3125 C20.546875,2.34375516 19.9218795,3.14062219 19.015625,3.703125 C19.8593792,3.57812438 20.6718711,3.34375172 21.453125,3 Z" id="Path"></path>
                    </g>
                </g>
            </g>
            <g id="pinterest" transform="translate(2.000000, 68.000000)" fill="#222222" fill-rule="nonzero">
                <g id="product_dteail-icon-pinterest">
                    <g id="ï‡">
                        <path d="M7.046875,19.5625 C7.26562609,19.2187483 7.49999875,18.7968775 7.75,18.296875 C8.00000125,17.7968725 8.18749937,17.3281272 8.3125,16.890625 L9.015625,14.5 C9.20312594,14.8125016 9.49999797,15.0781239 9.90625,15.296875 C10.312502,15.515625 10.7656225,15.625 11.265625,15.625 C12.7968827,15.5937498 14.0390577,14.9921934 14.9921875,13.8203125 C15.9453173,12.6484316 16.421875,11.1875087 16.421875,9.4375 C16.3906248,7.74999156 15.8046932,6.37500531 14.6640625,5.3125 C13.5234318,4.24999469 12.0781337,3.70312516 10.328125,3.671875 C8.17186422,3.73437531 6.53906805,4.35155664 5.4296875,5.5234375 C4.32030695,6.69531836 3.765625,8.09374187 3.765625,9.71875 C3.765625,10.4687537 3.93749828,11.2187462 4.28125,11.96875 C4.62500172,12.7187538 5.12499672,13.2499984 5.78125,13.5625 C5.96875094,13.6562505 6.0625,13.6250008 6.0625,13.46875 L6.34375,12.34375 C6.37500016,12.2187494 6.35937531,12.1250003 6.296875,12.0625 C6.04687375,11.7812486 5.85937563,11.437502 5.734375,11.03125 C5.60937437,10.624998 5.546875,10.2031272 5.546875,9.765625 C5.546875,8.60936922 5.93749609,7.60937922 6.71875,6.765625 C7.50000391,5.92187078 8.60936781,5.48437516 10.046875,5.453125 C11.2968813,5.48437516 12.2968713,5.85937141 13.046875,6.578125 C13.7968787,7.29687859 14.1874998,8.26561891 14.21875,9.484375 C14.1874998,10.8593819 13.8828154,11.9609334 13.3046875,12.7890625 C12.7265596,13.6171916 11.9843795,14.0468748 11.078125,14.078125 C10.5468723,14.078125 10.1406264,13.8984393 9.859375,13.5390625 C9.57812359,13.1796857 9.46874969,12.7500025 9.53125,12.25 C9.68750078,11.656247 9.86718648,11.0703154 10.0703125,10.4921875 C10.2734385,9.91405961 10.3828124,9.41406461 10.3984375,8.9921875 C10.4140626,8.57031039 10.3125011,8.22656383 10.09375,7.9609375 C9.87499891,7.69531117 9.56250203,7.54687516 9.15625,7.515625 C8.62499734,7.54687516 8.18750172,7.78124781 7.84375,8.21875 C7.49999828,8.65625219 7.31250016,9.23437141 7.28125,9.953125 C7.31250016,10.4218773 7.36718711,10.7890612 7.4453125,11.0546875 C7.52343789,11.3203138 7.57812484,11.453125 7.609375,11.453125 L6.4375,16.375 C6.34374953,16.8437523 6.30468742,17.3515598 6.3203125,17.8984375 C6.33593758,18.4453152 6.37499969,18.921873 6.4375,19.328125 C4.53124047,18.5781212 2.99219336,17.3750083 1.8203125,15.71875 C0.648431641,14.0624917 0.0468751563,12.1562608 0.015625,10 C0.0781253125,7.15623578 1.04686563,4.79688437 2.921875,2.921875 C4.79688437,1.04686562 7.15623578,0.0781253125 10,0.015625 C12.8437642,0.0781253125 15.2031156,1.04686562 17.078125,2.921875 C18.9531344,4.79688437 19.9218747,7.15623578 19.984375,10 C19.9218747,12.8437642 18.9531344,15.2031156 17.078125,17.078125 C15.2031156,18.9531344 12.8437642,19.9218747 10,19.984375 C8.96874484,19.984375 7.98437969,19.8437514 7.046875,19.5625 Z" id="Path"></path>
                    </g>
                </g>
            </g>
            <g id="instagram" transform="translate(2.000000, 102.000000)" fill="#222222" fill-rule="nonzero">
                <g id="product_dteail-icon-instagram">
                    <g id="ï‡">
                        <path d="M5.8,0 L14.2,0 C17.4,0 20,2.6 20,5.8 L20,14.2 C20,17.4032515 17.4032515,20 14.2,20 L5.8,20 C2.6,20 0,17.4 0,14.2 L0,5.8 C0,2.59674845 2.59674845,0 5.8,0 M5.6,2 C3.6117749,2 2,3.6117749 2,5.6 L2,14.4 C2,16.39 3.61,18 5.6,18 L14.4,18 C16.3882251,18 18,16.3882251 18,14.4 L18,5.6 C18,3.61 16.39,2 14.4,2 L5.6,2 M15.25,3.5 C15.9403559,3.5 16.5,4.05964406 16.5,4.75 C16.5,5.44035594 15.9403559,6 15.25,6 C14.5596441,6 14,5.44035594 14,4.75 C14,4.05964406 14.5596441,3.5 15.25,3.5 M10,5 C12.7614237,5 15,7.23857625 15,10 C15,12.7614237 12.7614237,15 10,15 C7.23857625,15 5,12.7614237 5,10 C5,7.23857625 7.23857625,5 10,5 M10,7 C8.34314575,7 7,8.34314575 7,10 C7,11.6568542 8.34314575,13 10,13 C11.6568542,13 13,11.6568542 13,10 C13,8.34314575 11.6568542,7 10,7 Z" id="Shape"></path>
                    </g>
                </g>
            </g>
            <g id="account" transform="translate(2.000000, 136.000000)" fill="#1A1A1A" fill-rule="nonzero">
                <g id="Group">
                    <g id="ï‡">
                        <path d="M10,0 C4.48,0 0,4.48 0,10 C0,15.52 4.48,20 10,20 C15.52,20 20,15.52 20,10 C20,4.48 15.52,0 10,0 Z M5.07,16.28 C5.5,15.38 8.12,14.5 10,14.5 C11.88,14.5 14.51,15.38 14.93,16.28 C13.57,17.36 11.86,18 10,18 C8.14,18 6.43,17.36 5.07,16.28 Z M16.36,14.83 C14.93,13.09 11.46,12.5 10,12.5 C8.54,12.5 5.07,13.09 3.64,14.83 C2.62,13.49 2,11.82 2,10 C2,5.59 5.59,2 10,2 C14.41,2 18,5.59 18,10 C18,11.82 17.38,13.49 16.36,14.83 Z M10,4 C8.06,4 6.5,5.56 6.5,7.5 C6.5,9.44 8.06,11 10,11 C11.94,11 13.5,9.44 13.5,7.5 C13.5,5.56 11.94,4 10,4 Z M10,9 C9.17,9 8.5,8.33 8.5,7.5 C8.5,6.67 9.17,6 10,6 C10.83,6 11.5,6.67 11.5,7.5 C11.5,8.33 10.83,9 10,9 Z" id="ðŸ”¹-Icon-Color"></path>
                    </g>
                </g>
            </g>
            <g id="chevron-down" transform="translate(6.000000, 176.000000)" fill="#555550" fill-rule="nonzero">
                <polygon id="Path" points="1.41 7.41 6 2.83 10.59 7.41 12 6 6 0 0 6"></polygon>
            </g>
            <g id="chevron-down" transform="translate(6.000000, 210.000000)" fill="#555550" fill-rule="nonzero">
                <polygon id="Path" points="1.41 0.58 6 5.17 10.59 0.58 12 2 6 8 0 2"></polygon>
            </g>
            <g id="youtube" transform="translate(2.000000, 241.000000)" fill="#222222" fill-rule="nonzero">
                <g id="Group">
                    <g id="ï‡">
                        <path d="M8,10 L13.19,7 L8,4 L8,10 M19.56,2.17 C19.69,2.64 19.78,3.27 19.84,4.07 C19.91,4.87 19.94,5.56 19.94,6.16 L20,7 C20,9.19 19.84,10.8 19.56,11.83 C19.31,12.73 18.73,13.31 17.83,13.56 C17.36,13.69 16.5,13.78 15.18,13.84 C13.88,13.91 12.69,13.94 11.59,13.94 L10,14 C5.81,14 3.2,13.84 2.17,13.56 C1.27,13.31 0.69,12.73 0.44,11.83 C0.31,11.36 0.22,10.73 0.16,9.93 C0.09,9.13 0.06,8.44 0.06,7.84 L0,7 C0,4.81 0.16,3.2 0.44,2.17 C0.69,1.27 1.27,0.69 2.17,0.44 C2.64,0.31 3.5,0.22 4.82,0.16 C6.12,0.09 7.31,0.06 8.41,0.06 L10,0 C14.19,0 16.8,0.16 17.83,0.44 C18.73,0.69 19.31,1.27 19.56,2.17 Z" id="Shape"></path>
                    </g>
                </g>
            </g>
            <g id="cart" transform="translate(4.000000, 271.000000)" fill="#1A1A1A" fill-rule="nonzero">
                <g id="Group">
                    <g id="ï„‘">
                        <path d="M11.34375,11 C11.7187519,11 12.0312487,11.130207 12.28125,11.390625 C12.5312513,11.651043 12.65625,11.9687481 12.65625,12.34375 C12.65625,12.7187519 12.5312513,13.0312487 12.28125,13.28125 C12.0312487,13.5312513 11.7135436,13.65625 11.328125,13.65625 C10.9427064,13.65625 10.6250013,13.5312513 10.375,13.28125 C10.1249987,13.0312487 10,12.7135436 10,12.328125 C10,11.9427064 10.1249987,11.6250013 10.375,11.375 C10.6250013,11.1249987 10.9479147,11 11.34375,11 Z M0.65625,0.34375 L2.84375,0.34375 L3.46875,1.65625 L13.34375,1.65625 C13.5312509,1.67708344 13.6874994,1.74999937 13.8125,1.875 C13.9375006,2.00000063 14,2.15624906 14,2.34375 C14,2.44791719 13.9687503,2.55208281 13.90625,2.65625 L11.53125,6.96875 C11.4062494,7.17708437 11.2447927,7.34375 11.046875,7.46875 C10.8489573,7.59375063 10.6250013,7.65625 10.375,7.65625 L5.40625,7.65625 L4.8125,8.75 L4.78125,8.84375 C4.78125,8.94791719 4.83333281,9 4.9375,9 L12.65625,9 L12.65625,10.34375 L4.65625,10.34375 C4.28124813,10.3229166 3.96875125,10.1875013 3.71875,9.9375 C3.46874875,9.6874987 3.34375,9.3750019 3.34375,9 C3.34375,8.77083219 3.39583281,8.56250094 3.5,8.375 L4.40625,6.71875 L2,1.65625 L0.65625,1.65625 L0.65625,0.34375 Z M4.65625,11 C5.03125187,11 5.34895703,11.130207 5.609375,11.390625 C5.86979297,11.651043 6,11.9687481 6,12.34375 C6,12.7187519 5.86979297,13.0312487 5.609375,13.28125 C5.34895703,13.5312513 5.03125187,13.65625 4.65625,13.65625 C4.28124813,13.65625 3.96875125,13.5312513 3.71875,13.28125 C3.46874875,13.0312487 3.34375,12.7135436 3.34375,12.328125 C3.34375,11.9427064 3.46874875,11.6250013 3.71875,11.375 C3.96875125,11.1249987 4.28124813,11 4.65625,11 Z M10.65625,6.34375 L12.53125,3 L4.09375,3 L5.65625,6.34375 L10.65625,6.34375 Z"></path>
                    </g>
                </g>
            </g>
            <g id="hamburger" transform="translate(6.000000, 308.000000)" fill="#1A1A1A" fill-rule="nonzero">
                <g id="Exportable">
                    <g id="menu">
                        <path d="M0,0 L12,0 L12,1.34375 L0,1.34375 L0,0 Z M0,3.34375 L12,3.34375 L12,4.65625 L0,4.65625 L0,3.34375 Z M0,6.65625 L12,6.65625 L12,8 L0,8 L0,6.65625 Z" id="ïœ"></path>
                    </g>
                </g>
            </g>
            <g id="search-icon" transform="translate(6.000000, 338.000000)" fill="#1A1A1A" fill-rule="nonzero">
                <g id="Symbols">
                    <g id="Input-Icon">
                        <g id="Input---Placeholder---Icon">
                            <g id="Icons/Customs/Arrows/Select/Double-arrow">
                                <path d="M13.942809,13 L13,13.942809 L10.7238576,11.6666667 L11.6666667,10.7238576 L13.942809,13 Z M10.5760003,10.5759603 C8.23285379,12.9191068 4.43386621,12.9191068 2.09073304,10.5759603 C-0.252413459,8.23281379 -0.252413459,4.43382621 2.09073304,2.09069304 C4.27453971,-0.093113628 7.72291809,-0.241617951 10.0787031,1.64518116 L10.1045958,1.61928852 L10.5760003,2.09069304 L11.0474048,2.56210024 L11.0215123,2.58799261 C12.9083113,4.94378734 12.7598073,8.39216568 10.5760003,10.5759603 Z M3.03354074,3.03350342 C1.21109509,4.85593871 1.21109509,7.81070426 3.03354342,9.6331526 C4.85597871,11.4555982 7.81074426,11.4555982 9.6331926,9.6331499 C11.4556382,7.81071463 11.4556382,4.85594908 9.6331913,3.03350208 C7.81075463,1.21105509 4.85598908,1.21105509 3.03354074,3.03350342 Z" id="Icon-color"></path>
                            </g>
                        </g>
                    </g>
                </g>
            </g>
            <g id="blog-icon" transform="translate(2.000000, 374.000000)" fill="#1A1A1A" fill-rule="nonzero">
                <g id="Group">
                    <g id="Shape">
                        <path d="M12,11 L7.95,11 C7.39771525,11 6.95,11.4477153 6.95,12 C6.95,12.5522847 7.39771525,13 7.95,13 L12,13 C12.5522847,13 13,12.5522847 13,12 C13,11.4477153 12.5522847,11 12,11 M7.95,8 L10.55,8 C11.1022847,8 11.55,7.55228475 11.55,7 C11.55,6.44771525 11.1022847,6 10.55,6 L7.95,6 C7.39771525,6 6.95,6.44771525 6.95,7 C6.95,7.55228475 7.39771525,8 7.95,8 M14,7 L14,8 C14,8.55228475 14.4477153,9 15,9 C15.5522847,9 16,9.44771525 16,10 L16,13 C16,14.6568542 14.6568542,16 13,16 L7,16 C5.34314575,16 4,14.6568542 4,13 L4,6 C4,4.34314575 5.34314575,3 7,3 L11,3 C12.6568542,3 14,4.34314575 14,6 M18,0 L2,0 C0.89,0 0,0.89 0,2 L0,18 C0,19.1045695 0.8954305,20 2,20 L18,20 C19.1045695,20 20,19.1045695 20,18 L20,2 C20,0.89 19.1,0 18,0 Z"></path>
                    </g>
                </g>
            </g>
            <g id="cart-02" transform="translate(5.000000, 406.000000)">
                <g id="Bag">
                    <g>
                        <rect id="Rectangle" x="0" y="0" width="16" height="16"></rect>
                        <g id="24px-bag-09" stroke-linecap="square" transform="translate(1.333333, 0.666667)" stroke="#1A1A1A">
                            <polygon id="Path" points="13.3333333 14.6666667 0 14.6666667 1.33333333 4 12 4"></polygon>
                            <path d="M4,6 L4,2.66666667 C4,1.2 5.2,0 6.66666667,0 L6.66666667,0 C8.13333333,0 9.33333333,1.2 9.33333333,2.66666667 L9.33333333,6" id="Path"></path>
                        </g>
                    </g>
                </g>
            </g>
            <g id="blog-icon" transform="translate(5.000000, 445.000000)" fill="#FFFFFF" fill-rule="nonzero">
                <g id="Group">
                    <g id="Path">
                        <polygon points="14 1.41 12.59 0 7 5.59 1.41 0 0 1.41 5.59 7 0 12.59 1.41 14 7 8.41 12.59 14 14 12.59 8.41 7"></polygon>
                    </g>
                </g>
            </g>
            <g id="more-icon" transform="translate(4.000000, 484.000000)" fill="#000000" fill-rule="nonzero">
                <path d="M12,2 C12,0.8954305 12.8954305,0 14,0 C15.1045695,0 16,0.8954305 16,2 C16,3.1045695 15.1045695,4 14,4 C12.8954305,4 12,3.1045695 12,2 M6,2 C6,0.8954305 6.8954305,0 8,0 C9.1045695,0 10,0.8954305 10,2 C10,3.1045695 9.1045695,4 8,4 C6.8954305,4 6,3.1045695 6,2 M0,2 C0,0.8954305 0.8954305,0 2,0 C3.1045695,0 4,0.8954305 4,2 C4,3.1045695 3.1045695,4 2,4 C0.8954305,4 0,3.1045695 0,2 Z" id="Shape"></path>
            </g>
            <g id="pencil-icon" transform="translate(3.000000, 501.000000)" fill="#000000" fill-rule="nonzero">
                <path d="M17.71,4.04 C18.1,3.65 18.1,3 17.71,2.63 L15.37,0.29 C15,-0.1 14.35,-0.1 13.96,0.29 L12.12,2.12 L15.87,5.87 M0,14.25 L0,18 L3.75,18 L14.81,6.93 L11.06,3.18 L0,14.25 Z" id="Shape"></path>
            </g>
            <g id="facebook-oval" transform="translate(0.000000, 532.000000)" fill-rule="nonzero">
                <circle id="Oval" fill="#3B5998" cx="12" cy="12" r="12"></circle>
                <path d="M10.8255833,18 L10.8255833,12.4049464 L9,12.4049464 L9,10.3436109 L10.8255833,10.3436109 L10.8255833,8.81980688 C10.8255833,6.99412029 11.8859593,6 13.4347159,6 C14.1765851,6 14.814184,6.05808255 15,6.08404359 L15,7.9919922 L13.9258547,7.99250459 C13.0835544,7.99250459 12.9204631,8.41339691 12.9204631,9.03102604 L12.9204631,10.3436109 L14.8806947,10.3436109 L14.6006616,12.4049464 L12.9204631,12.4049464 L12.9204631,18 L10.8255833,18 Z" id="White_2_" fill="#FFFFFF"></path>
            </g>
            <g id="pinterest-oval" transform="translate(0.000000, 566.000000)" fill-rule="nonzero">
                <circle id="Oval" fill="#BD081C" cx="12" cy="12" r="12"></circle>
                <path d="M12.7172301,15.7318801 C11.8164868,15.6622164 11.4380089,15.2155615 10.7316018,14.7867473 C10.343354,16.8237739 9.86887615,18.7764819 8.46349562,19.7965881 C8.02915934,16.7177916 9.10023898,14.405296 9.59765491,11.950712 C8.7497965,10.5234553 9.69960181,7.65067655 11.4879204,8.35857036 C13.6889115,9.22894204 9.58236288,13.6655438 12.339177,14.2196677 C15.2172655,14.7982164 16.3922036,9.2257562 14.6072832,7.41322523 C12.0284514,4.79637567 7.10080535,7.3537562 7.70675226,11.0998801 C7.85436288,12.0157031 8.80076995,12.2937208 8.08480535,13.5574376 C6.43432748,13.1919155 5.94200889,11.890181 6.00530093,10.1547473 C6.10746022,7.31403939 8.5577965,5.32501284 11.0155664,5.0497562 C14.123885,4.70186239 17.0412655,6.19113673 17.4439558,9.11488894 C17.8969823,12.4147827 16.0406992,15.9884465 12.7172301,15.7318801 L12.7172301,15.7318801 Z" id="Path" fill="#FFFFFF"></path>
            </g>
            <g id="twitter-oval" transform="translate(0.000000, 600.000000)" fill-rule="nonzero">
                <circle id="Oval" fill="#1DA1F2" cx="12" cy="12" r="12"></circle>
                <path d="M18.5,8.18377139 C18.0584925,8.3845526 17.5840275,8.52028154 17.0859825,8.58129111 C17.5943125,8.26886538 17.9846825,7.77411845 18.168485,7.1846053 C17.692815,7.47391308 17.165925,7.68401018 16.605125,7.79723897 C16.156035,7.30657831 15.51619,7 14.8081125,7 C13.4484,7 12.346095,8.13032167 12.346095,9.52445677 C12.346095,9.72233862 12.36787,9.91498574 12.4098325,10.0997705 C10.3637325,9.99449891 8.5496575,8.98944951 7.3353875,7.46209006 C7.1234675,7.8349537 7.002075,8.26860133 7.002075,8.73126049 C7.002075,9.60708976 7.43672,10.3798008 8.0973075,10.8325289 C7.69374,10.8194318 7.3141275,10.7058518 6.9821825,10.5167603 C6.98201,10.5273092 6.9819725,10.5378607 6.9819725,10.5484968 C6.9819725,11.7716723 7.8306025,12.7920209 8.9568725,13.0239234 C8.7502675,13.0815876 8.53277,13.1124474 8.3082475,13.1124474 C8.1496025,13.1124474 7.995375,13.0966227 7.8450475,13.0671728 C8.158345,14.070115 9.06755,14.800015 10.14487,14.8204105 C9.30228,15.4974812 8.240735,15.9010663 7.08729,15.9010663 C6.8885675,15.9010637 6.69259,15.8891099 6.5,15.8658125 C7.589535,16.5820848 8.8836175,17 10.2739325,17 C14.8023675,17 17.2786575,13.1532333 17.2786575,9.81718943 C17.2786575,9.70774185 17.27626,9.59886851 17.2715425,9.49061041 C17.7525275,9.13467123 18.169945,8.69003115 18.5,8.18377139 Z" id="Path" fill="#FFFFFF"></path>
            </g>
            <g id="instagram-oval" transform="translate(0.000000, 634.000000)">
                <g id="Email">
                    <circle id="Oval" fill="#E1306C" cx="12" cy="12" r="12"></circle>
                    <path d="M15,6 C16.542,6 18,7.458 18,9 L18,15 C18,16.542 16.542,18 15,18 L9,18 C7.458,18 6,16.542 6,15 L6,9 C6,7.458 7.458,6 9,6 L15,6 Z M15,7.5 L9,7.5 C8.29875,7.5 7.5,8.29875 7.5,9 L7.5,15 C7.5,15.71475 8.28525,16.5 9,16.5 L15,16.5 C15.70125,16.5 16.5,15.70125 16.5,15 L16.5,9 C16.5,8.29875 15.70125,7.5 15,7.5 Z M12,9 C13.6545,9 15,10.3455 15,12 C15,13.6545 13.6545,15 12,15 C10.3455,15 9,13.6545 9,12 C9,10.3455 10.3455,9 12,9 Z M12,10.5 C11.17275,10.5 10.5,11.17275 10.5,12 C10.5,12.82725 11.17275,13.5 12,13.5 C12.82725,13.5 13.5,12.82725 13.5,12 C13.5,11.17275 12.82725,10.5 12,10.5 Z M15.10875,8.199 C15.506395,8.199 15.82875,8.52135498 15.82875,8.919 C15.82875,9.31664502 15.506395,9.639 15.10875,9.639 C14.711105,9.639 14.38875,9.31664502 14.38875,8.919 C14.38875,8.52135498 14.711105,8.199 15.10875,8.199 Z" id="Combined-Shape" fill="#FFFFFF" fill-rule="nonzero"></path>
                </g>
            </g>
            <g id="email-oval" transform="translate(0.000000, 668.000000)" fill-rule="nonzero">
                <circle id="Oval" fill="#E6E6E6" cx="12" cy="12" r="12"></circle>
                <path d="M6.50825,10.0647158 L11.5129063,12.6633824 C11.66175,12.7407158 11.8301875,12.7817158 12,12.7817158 C12.1698125,12.7817158 12.33825,12.7407158 12.48675,12.6633824 L12.48675,12.6633824 L17.49175,10.0650491 C17.4934688,10.0787158 17.5,10.0907158 17.5,10.1047158 L17.5,10.1047158 L17.5,15.6666667 C17.5,15.851 17.346,16 17.15625,16 L17.15625,16 L6.84375,16 C6.654,16 6.5,15.851 6.5,15.6666667 L6.5,15.6666667 L6.5,10.1047158 C6.5,10.0907158 6.50653125,10.0783824 6.50825,10.0647158 L6.50825,10.0647158 Z M17.15625,8 C17.346,8 17.5,8.149 17.5,8.33333333 L17.5,8.33333333 L17.5,8.88105566 C17.5,9.00405566 17.4302187,9.11705566 17.3185,9.17505566 L17.3185,9.17505566 L12.16225,11.8520557 C12.1117187,11.878389 12.0556875,11.891389 12,11.891389 C11.9443125,11.891389 11.8882813,11.878389 11.83775,11.8520557 L11.83775,11.8520557 L6.6815,9.17505566 C6.56978125,9.11705566 6.5,9.00405566 6.5,8.88105566 L6.5,8.88105566 L6.5,8.33333333 C6.5,8.149 6.654,8 6.84375,8 L6.84375,8 L17.15625,8 Z" id="Combined-Shape" fill="#FFFFFF"></path>
            </g>
        </g>
    </g>
</svg>